<svg width="18" height="18" viewBox="0 0 18 18" fill="none" xmlns="http://www.w3.org/2000/svg">
<path d="M6.02324 5.75851L8.48024 0.890634C8.52742 0.792707 8.60116 0.709996 8.69305 0.65192C8.78493 0.593843 8.89128 0.562734 8.99999 0.562134C9.20586 0.562134 9.41174 0.671259 9.52311 0.890634L11.9801 5.75851L17.4904 6.54151C17.6277 6.5631 17.7534 6.63141 17.8462 6.7349C17.9391 6.8384 17.9934 6.97075 18 7.10963C18.0078 7.20209 17.9947 7.29513 17.9616 7.38181C17.9285 7.4685 17.8762 7.54659 17.8087 7.61026L13.8454 11.3858L14.7791 16.707C14.8669 17.2054 14.3741 17.5958 13.9399 17.373L8.99999 14.835L4.06236 17.373C4.01071 17.3998 3.95535 17.4188 3.89811 17.4293C3.51336 17.4968 3.14661 17.1435 3.22311 16.707L4.15686 11.3858L0.194611 7.61026C0.133012 7.55198 0.0840498 7.48166 0.0507631 7.40367C0.0174764 7.32568 0.000575961 7.24168 0.00111095 7.15688C0.00116946 7.037 0.034255 6.91945 0.096736 6.81713C0.141059 6.74296 0.201472 6.67969 0.273516 6.63198C0.34556 6.58428 0.427396 6.55336 0.512986 6.54151L6.02324 5.75851ZM8.99999 13.53C9.0908 13.5296 9.18035 13.5512 9.26099 13.593L13.4077 15.7238L12.627 11.2721C12.6086 11.1698 12.6155 11.0644 12.6473 10.9654C12.6791 10.8663 12.7347 10.7766 12.8092 10.704L16.0796 7.58776L11.5211 6.93976C11.4267 6.9255 11.3372 6.88858 11.2602 6.83215C11.1832 6.77573 11.121 6.70147 11.079 6.61576L9.00111 2.50051L8.99999 2.50388V13.5289V13.53Z" fill="#85BD71"/>
</svg>
